# xmcd
#
# Track frame offsets:
#	150
#	17692
#	37600
#
# Disc length: 893 seconds
#
# Revision: 0
# Processed by: cddbd v1.5.1PL0 Copyright (c) Steve Scherf et al.
# Submitted via: MusicManager 7.0.3.0 
#
DISCID=12037b03
DTITLE=Hermes House Band - Que Sera Sera
DYEAR=1900
DGENRE=Lounge
TTITLE0=Que Sera Sera
TTITLE1=Que Sera Sera
TTITLE2=Que Sera Sera
EXTD=
EXTT0=
EXTT1=
EXTT2=
PLAYORDER=
